<?xml version="1.0" encoding="UTF-8" standalone="no"?><!DOCTYPE svg PUBLIC "-//W3C//DTD SVG 1.1//EN" "http://www.w3.org/Graphics/SVG/1.1/DTD/svg11.dtd"><svg width="100%" height="100%" viewBox="0 0 2500 2500" version="1.1" xmlns="http://www.w3.org/2000/svg" xmlns:xlink="http://www.w3.org/1999/xlink" xml:space="preserve" style="fill-rule:evenodd;clip-rule:evenodd;stroke-linejoin:round;stroke-miterlimit:1.41421;"><rect id="Background" x="0" y="0" width="2500" height="2500" style="fill:none;"/><path id="Cuboctahedron" d="M2473.33,1507.92l-237.5,-1034.58c-13.333,-56.666 -65,-113.333 -121.666,-129.583l-1085.42,-335c-13.333,-5.417 -29.583,-5.417 -45.833,-5.417c-45.834,0 -94.584,18.75 -127.084,45.834l-777.916,724.166c-43.334,37.917 -65,113.334 -51.25,167.5l253.75,1107.5c13.333,56.667 65,113.334 121.666,129.584l1015.42,313.333c13.333,5.417 29.583,5.417 45.833,5.417c45.834,0 94.584,-18.75 127.084,-45.834l831.666,-772.5c43.334,-40.833 64.584,-113.75 51.25,-170.416Zm-1331.25,-1253.33l745.417,229.584c29.583,7.916 29.583,21.666 0,29.583l-391.667,89.167c-29.583,7.916 -70.416,-5.417 -91.666,-27.084l-272.917,-294.583c-24.583,-23.75 -19.167,-34.583 10.833,-26.667Zm464.584,1337.08c7.916,29.583 -10.834,45.833 -40.417,37.916l-804.583,-248.333c-29.584,-7.917 -35,-32.5 -13.334,-54.167l615.834,-572.5c21.666,-21.666 45.833,-13.333 54.166,16.25l188.334,820.834Zm-1326.25,-729.167l653.75,-607.917c21.666,-21.666 56.666,-18.75 78.333,2.5l326.667,353.75c21.666,21.667 18.75,56.667 -2.5,78.334l-653.75,607.916c-21.667,21.667 -56.667,18.75 -78.334,-2.5l-326.666,-353.75c-21.667,-24.583 -19.167,-59.583 2.5,-78.333Zm159.583,964.167l-172.917,-759.167c-7.916,-29.583 5.417,-35 24.167,-13.333l272.917,294.583c21.666,21.667 29.583,65 21.666,94.583l-118.75,383.334c-8.333,29.583 -21.666,29.583 -27.083,0Zm955.833,442.916l-853.333,-262.083c-29.583,-7.917 -45.833,-40.417 -37.917,-70.417l143.334,-459.166c7.916,-29.584 40.416,-45.834 70.416,-37.917l853.334,262.083c29.583,7.917 45.833,40.417 37.916,70.417l-143.333,459.167c-10.833,30 -40.833,45.833 -70.417,37.916Zm756.25,-621.25l-570,529.584c-21.666,21.666 -32.5,13.333 -24.166,-16.25l118.75,-383.334c7.916,-29.583 40.416,-59.583 70.416,-65l391.667,-89.166c29.583,-8.334 35,5.416 13.333,24.166Zm62.084,-113.333l-470,107.917c-29.584,7.916 -59.584,-10.834 -67.5,-40.417l-200,-869.583c-7.917,-29.584 10.833,-59.584 40.416,-67.5l470,-107.917c29.584,-7.917 59.584,10.833 67.5,40.417l200,869.583c8.334,32.5 -10.833,62.083 -40.416,67.5Z" style="fill:url(#_Linear1);fill-rule:nonzero;"/><defs><linearGradient id="_Linear1" x1="0" y1="0" x2="1" y2="0" gradientUnits="userSpaceOnUse" gradientTransform="matrix(2454.73,0,0,2493.33,22.5563,1250)"><stop offset="0" style="stop-color:#22adf6;stop-opacity:1"/><stop offset="1" style="stop-color:#9394ff;stop-opacity:1"/></linearGradient></defs></svg>