<?xml version="1.0" encoding="UTF-8" standalone="no"?><!DOCTYPE svg PUBLIC "-//W3C//DTD SVG 1.1//EN" "http://www.w3.org/Graphics/SVG/1.1/DTD/svg11.dtd"><svg width="100%" height="100%" viewBox="0 0 2500 2500" version="1.1" xmlns="http://www.w3.org/2000/svg" xmlns:xlink="http://www.w3.org/1999/xlink" xml:space="preserve" style="fill-rule:evenodd;clip-rule:evenodd;stroke-linejoin:round;stroke-miterlimit:1.41421;"><g id="InfluxData-Symbol-Only"><path d="M2214.11,1534.95l-469.904,108.037c-29.704,8.1 -59.413,-10.804 -67.513,-40.512l-199.845,-869.7c-8.1,-29.709 10.804,-59.421 40.508,-67.521l469.904,-108.038c29.708,-8.104 59.413,10.804 67.517,40.513l199.841,869.696c8.105,32.412 -10.8,62.12 -40.508,67.525m-62.112,113.437l-569.825,529.379c-21.605,21.609 -32.409,13.509 -24.309,-16.204l118.829,-383.529c8.1,-29.713 40.509,-59.421 70.213,-64.825l391.587,-89.129c29.709,-8.1 35.109,5.404 13.505,24.308m-756.167,621.213l-853.388,-261.992c-29.708,-8.1 -45.912,-40.513 -37.808,-70.221l143.129,-459.158c8.104,-29.708 40.509,-45.917 70.217,-37.813l853.387,261.992c29.709,8.1 45.909,40.513 37.809,70.221l-143.129,459.158c-10.805,29.709 -40.513,45.917 -70.217,37.813m-956.013,-442.95l-172.837,-758.959c-8.1,-29.712 5.4,-35.112 24.304,-13.504l272.763,294.4c21.604,21.604 29.704,64.821 21.604,94.529l-118.825,383.534c-8.104,29.708 -21.604,29.708 -27.009,0m-159.333,-964.23l653.542,-607.708c21.608,-21.604 56.712,-18.904 78.321,2.704l326.77,353.821c21.605,21.604 18.905,56.717 -2.7,78.325l-653.545,607.708c-21.605,21.605 -56.713,18.905 -78.317,-2.704l-326.771,-353.821c-21.604,-24.308 -18.904,-59.42 2.7,-78.325m1325.99,729.251c8.1,29.708 -10.804,45.916 -40.509,37.812l-804.779,-248.487c-29.704,-8.101 -35.108,-32.409 -13.5,-54.017l615.734,-572.596c21.604,-21.608 45.908,-13.504 54.012,16.204l189.042,821.084Zm-464.504,-1336.96l745.366,229.579c29.704,8.105 29.704,21.609 0,29.713l-391.587,89.129c-29.704,8.1 -70.217,-5.404 -91.821,-27.008l-272.758,-294.4c-24.305,-24.313 -18.905,-35.113 10.8,-27.013m1331.39,1253.23l-237.654,-1034.45c-13.504,-56.716 -64.812,-113.437 -121.525,-129.641l-1085.64,-334.917c-13.5,-5.4 -29.705,-5.4 -45.909,-5.4c-45.908,0 -94.521,18.908 -126.929,45.917l-777.771,723.845c-43.208,37.813 -64.812,113.438 -51.308,167.459l253.854,1107.38c13.504,56.72 64.813,113.437 121.525,129.645l1015.43,313.305c13.504,5.404 29.704,5.404 45.908,5.404c45.913,0 94.521,-18.909 126.93,-45.917l831.783,-772.462c43.208,-40.517 64.812,-113.442 51.312,-170.159" style="fill:url(#_Linear1);fill-rule:nonzero;"/></g><defs><linearGradient id="_Linear1" x1="0" y1="0" x2="1" y2="0" gradientUnits="userSpaceOnUse" gradientTransform="matrix(2454.73,0,0,2492.95,22.6354,1250)"><stop offset="0" style="stop-color:#22adf6;stop-opacity:1"/><stop offset="1" style="stop-color:#9394ff;stop-opacity:1"/></linearGradient></defs></svg>