<?xml version="1.0" encoding="UTF-8" standalone="no"?><!DOCTYPE svg PUBLIC "-//W3C//DTD SVG 1.1//EN" "http://www.w3.org/Graphics/SVG/1.1/DTD/svg11.dtd"><svg width="100%" height="100%" viewBox="0 0 2603 463" version="1.1" xmlns="http://www.w3.org/2000/svg" xmlns:xlink="http://www.w3.org/1999/xlink" xml:space="preserve" style="fill-rule:evenodd;clip-rule:evenodd;stroke-linejoin:round;stroke-miterlimit:1.41421;"><g><path d="M454.177,282.632l-45.417,-198.333c-1.666,-7.917 -10,-16.667 -17.916,-19.167l-207.917,-64.167c-7.917,-2.5 -19.583,0 -25.417,5.834l-149.166,138.333c-6.25,5.833 -9.584,17.083 -7.917,25l48.333,212.083c1.667,7.917 10,16.667 17.917,19.167l194.167,60c7.916,2.5 19.583,0 25.416,-5.833l159.584,-147.917c6.666,-5.417 10,-16.667 8.333,-25Zm-247.083,-236.25l138.75,42.5c5.416,1.667 5.416,4.167 0,5.417l-72.917,16.666c-5.417,1.25 -13.333,-1.25 -17.083,-5.416l-51.25,-55c-4.167,-3.75 -2.917,-5.834 2.5,-4.167Zm51.666,96.25l35,152.917c1.25,5.416 -2.083,8.75 -7.5,7.083l-150,-46.25c-5.416,-1.667 -6.25,-6.25 -2.5,-10l115,-106.667c4.167,-3.75 8.75,-2.5 10,2.917Zm-212.083,16.667l121.667,-112.917c4.166,-3.75 10.833,-3.75 14.583,0.417l61.25,65.833c3.75,4.167 3.75,10.833 -0.417,14.583l-121.666,112.917c-4.167,3.75 -10.834,3.75 -14.584,-0.417l-61.25,-65.833c-3.75,-4.167 -3.75,-10.833 0.417,-14.583Zm29.583,180l-32.5,-141.25c-1.25,-5.417 0.834,-6.667 4.584,-2.5l51.25,55c3.75,4.166 5.833,12.083 4.166,17.5l-22.083,71.666c-1.667,5 -4.167,5 -5.417,-0.416Zm190.834,75.416c-1.667,5.417 -7.5,8.334 -12.917,6.667l-158.75,-48.75c-5.417,-1.667 -8.333,-7.5 -6.667,-12.917l26.25,-85.833c1.667,-5.417 7.5,-8.333 12.917,-6.667l158.75,48.75c5.417,1.667 8.333,7.5 6.667,12.917l-26.25,85.833Zm127.916,-108.75l-106.25,98.75c-4.166,3.75 -6.25,2.5 -4.583,-2.916l22.083,-71.667c1.667,-5.417 7.5,-10.833 12.917,-12.083l72.917,-16.667c6.25,-1.25 7.083,0.833 2.916,4.583Zm11.667,-21.25l-87.5,20c-5.417,1.25 -11.25,-2.083 -12.5,-7.916l-37.083,-161.667c-1.25,-5.417 2.083,-11.25 7.916,-12.5l87.5,-20c5.417,-1.25 11.25,2.083 12.5,7.917l37.084,161.666c1.25,5.834 -2.084,11.25 -7.917,12.5Z" style="fill:url(#_Linear1);fill-rule:nonzero;"/><g><path d="M604.594,303.882c0,-10.417 0.833,-18.75 3.333,-30.417l11.25,-55.833c11.25,-56.667 38.75,-71.25 95.417,-71.25c17.916,0 35,3.75 46.666,8.333l-14.166,47.084c-10,-3.334 -21.667,-5.834 -33.334,-5.834c-26.25,0 -35,8.334 -39.166,31.25l-10.834,60.834c-0.416,2.5 -0.833,5.833 -0.833,7.916c0,6.667 3.333,10 10.833,10c15,0 42.5,-8.333 56.25,-12.5l5.417,46.667c-17.083,8.333 -45,15.417 -66.25,15.417c-46.25,-0.834 -64.583,-16.25 -64.583,-51.667Z" style="fill:url(#_Linear2);fill-rule:nonzero;"/><path d="M910.01,214.715c0.417,-2.5 0.834,-5 0.834,-6.666c0,-4.167 -2.084,-5.834 -7.917,-5.834c-10.833,0 -36.25,10.834 -52.083,18.75l-22.5,129.584l-57.917,0l50,-282.5l59.167,-8.334l-18.334,106.25c24.167,-12.5 51.667,-20 73.334,-20c26.666,0 36.666,15.417 36.666,40.834c0,7.083 -0.416,15 -2.083,22.916l-24.583,140.834l-57.917,0l23.333,-135.834Z" style="fill:url(#_Linear3);fill-rule:nonzero;"/><path d="M1130.01,198.465c-25.416,14.167 -35,19.167 -57.916,33.75l-20.834,118.334l-57.916,0l34.166,-195.834l51.25,-8.75l-1.25,27.084c19.167,-11.667 35,-19.584 52.5,-27.084l0,52.5Z" style="fill:url(#_Linear4);fill-rule:nonzero;"/><path d="M1131.26,287.632c0,-4.583 0.417,-9.583 1.25,-14.167l8.334,-46.666c9.166,-51.667 34.166,-81.25 104.166,-81.25c54.167,0 78.334,30.833 78.334,66.666c0,4.584 -0.417,9.584 -1.25,14.584l-8.334,46.666c-8.75,48.334 -31.666,81.25 -104.583,81.25c-51.25,0 -77.917,-30.416 -77.917,-67.083Zm133.75,-70.417c0,-15 -9.166,-22.5 -27.916,-22.5c-21.667,0 -34.584,11.25 -37.917,30.834l-8.75,50c-0.417,2.916 -0.833,5.833 -0.833,8.333c0,14.583 9.166,22.5 27.916,22.5c22.084,0 34.584,-11.25 37.917,-30.833l8.75,-50c0.417,-2.917 0.833,-5.834 0.833,-8.334Z" style="fill:url(#_Linear5);fill-rule:nonzero;"/><path d="M1480.01,214.299c0.417,-2.5 0.834,-4.584 0.834,-6.25c0,-4.167 -2.084,-5.834 -7.917,-5.834c-10.833,0 -36.25,10.834 -52.083,18.75l-22.5,129.584l-57.917,0l34.167,-195.834l51.25,-8.75l-0.417,22.084c31.25,-15 55.833,-22.5 79.167,-22.5c26.666,0 36.666,15.416 36.666,40.833c0,7.083 -0.416,12.917 -2.083,22.917l-24.583,140.833l-57.917,0l23.333,-135.833Z" style="fill:url(#_Linear6);fill-rule:nonzero;"/><path d="M1565.01,287.632c0,-4.583 0.417,-9.583 1.25,-14.167l8.334,-46.666c9.166,-51.667 34.166,-81.25 104.166,-81.25c54.167,0 78.334,30.833 78.334,66.666c0,4.584 -0.417,9.584 -1.25,14.584l-8.334,46.666c-8.75,48.334 -31.666,81.25 -104.583,81.25c-50.833,0 -77.917,-30.416 -77.917,-67.083Zm134.167,-70.417c0,-15 -9.167,-22.5 -27.917,-22.5c-21.666,0 -34.583,11.25 -37.916,30.834l-8.75,50c-0.417,2.916 -0.834,5.833 -0.834,8.333c0,14.583 9.167,22.5 27.917,22.5c22.083,0 34.583,-11.25 37.917,-30.833l8.75,-50c0.416,-2.917 0.833,-5.834 0.833,-8.334Z" style="fill:url(#_Linear7);fill-rule:nonzero;"/><path d="M1886.68,329.299c-17.083,10 -36.667,17.5 -58.333,17.5c-43.75,0 -54.584,-26.667 -46.667,-71.667l8.333,-45.833c9.167,-50.834 21.667,-83.334 107.5,-83.334c20.834,0 52.5,3.75 77.917,12.084l-39.583,222.5c-7.917,45 -27.084,55.833 -80.834,55.833c-23.75,0 -64.583,-7.5 -89.583,-15.833l10.417,-40.834c30.833,7.5 55.833,11.667 80,11.667c17.5,0 21.25,-6.667 23.75,-20l7.083,-42.083Zm-48.333,-47.084c-2.084,10.834 0.833,15.834 11.25,15.834c12.916,0 33.333,-8.334 45.416,-15.834l15.417,-86.666c-7.083,-0.834 -14.583,-1.25 -22.5,-1.25c-30,0 -35.833,15 -39.583,34.166l-10,53.75Z" style="fill:url(#_Linear8);fill-rule:nonzero;"/><path d="M2127.93,198.465c-25.417,14.167 -35,19.167 -57.917,33.75l-20.833,118.334l-57.917,0l34.167,-195.834l51.25,-8.75l-1.25,27.084c19.167,-11.667 35,-19.584 52.5,-27.084l0,52.5Z" style="fill:url(#_Linear9);fill-rule:nonzero;"/><path d="M2242.93,350.549l-1.667,-17.5c-14.166,10.833 -35,21.25 -63.75,21.25c-43.75,0 -52.5,-26.25 -44.583,-71.25l9.583,-54.167c8.334,-47.917 27.084,-83.333 106.25,-83.333c20.834,0 48.75,3.75 76.667,12.5l-33.333,192.083l-49.167,0l0,0.417Zm-52.917,-60.834c-1.666,10.834 0.834,15 11.25,15c15,0 30.834,-8.75 44.167,-19.583l15.417,-87.083c-7.917,-1.667 -16.667,-2.084 -22.5,-2.084c-30,0 -33.75,15 -37.5,34.167l-10.834,59.583Z" style="fill:url(#_Linear10);fill-rule:nonzero;"/><path d="M2325.01,401.382c20,-20.417 22.917,-31.25 26.25,-50.833l27.084,-153.334l-28.75,0l8.333,-47.5l28.75,0l5,-26.25c8.333,-44.583 23.75,-63.75 72.5,-63.75c16.667,0 35.833,2.917 51.667,8.75l-12.084,45.834c-9.166,-3.334 -25,-6.25 -34.166,-6.25c-13.334,0 -17.5,3.333 -19.167,13.75l-5.417,28.333l52.084,0l-12.5,47.5l-47.917,0l-27.917,160c-5,27.917 -15,47.917 -46.25,78.75l-37.5,-35Z" style="fill:url(#_Linear11);fill-rule:nonzero;"/></g><path d="M2559.18,80.549l-5,0l4.167,-23.334l-7.917,0l0.833,-4.583l20.834,0l-0.834,4.583l-7.916,0l-4.167,23.334Z" style="fill:url(#_Linear12);fill-rule:nonzero;"/><path d="M2595.84,62.632l-7.917,14.167l-5.417,0l-2.5,-14.167l-4.166,17.917l-5.417,0l6.25,-27.917l5.417,0l3.75,18.75l10.416,-18.75l5.834,0l-3.334,27.917l-5,0l2.084,-17.917Z" style="fill:url(#_Linear13);fill-rule:nonzero;"/></g><defs><linearGradient id="_Linear1" x1="0" y1="0" x2="1" y2="0" gradientUnits="userSpaceOnUse" gradientTransform="matrix(2602.09,0,0,462.347,0,231.174)"><stop offset="0" style="stop-color:#7a65f2;stop-opacity:1"/><stop offset="1" style="stop-color:#4591ed;stop-opacity:1"/></linearGradient><linearGradient id="_Linear2" x1="0" y1="0" x2="1" y2="0" gradientUnits="userSpaceOnUse" gradientTransform="matrix(2602.09,0,0,462.347,0,231.174)"><stop offset="0" style="stop-color:#7a65f2;stop-opacity:1"/><stop offset="1" style="stop-color:#4591ed;stop-opacity:1"/></linearGradient><linearGradient id="_Linear3" x1="0" y1="0" x2="1" y2="0" gradientUnits="userSpaceOnUse" gradientTransform="matrix(2602.09,0,0,462.347,0,231.174)"><stop offset="0" style="stop-color:#7a65f2;stop-opacity:1"/><stop offset="1" style="stop-color:#4591ed;stop-opacity:1"/></linearGradient><linearGradient id="_Linear4" x1="0" y1="0" x2="1" y2="0" gradientUnits="userSpaceOnUse" gradientTransform="matrix(2602.09,0,0,462.347,0,231.174)"><stop offset="0" style="stop-color:#7a65f2;stop-opacity:1"/><stop offset="1" style="stop-color:#4591ed;stop-opacity:1"/></linearGradient><linearGradient id="_Linear5" x1="0" y1="0" x2="1" y2="0" gradientUnits="userSpaceOnUse" gradientTransform="matrix(2602.09,0,0,462.347,0,231.174)"><stop offset="0" style="stop-color:#7a65f2;stop-opacity:1"/><stop offset="1" style="stop-color:#4591ed;stop-opacity:1"/></linearGradient><linearGradient id="_Linear6" x1="0" y1="0" x2="1" y2="0" gradientUnits="userSpaceOnUse" gradientTransform="matrix(2602.09,0,0,462.347,0,231.174)"><stop offset="0" style="stop-color:#7a65f2;stop-opacity:1"/><stop offset="1" style="stop-color:#4591ed;stop-opacity:1"/></linearGradient><linearGradient id="_Linear7" x1="0" y1="0" x2="1" y2="0" gradientUnits="userSpaceOnUse" gradientTransform="matrix(2602.09,0,0,462.347,0,231.174)"><stop offset="0" style="stop-color:#7a65f2;stop-opacity:1"/><stop offset="1" style="stop-color:#4591ed;stop-opacity:1"/></linearGradient><linearGradient id="_Linear8" x1="0" y1="0" x2="1" y2="0" gradientUnits="userSpaceOnUse" gradientTransform="matrix(2602.09,0,0,462.347,0,231.174)"><stop offset="0" style="stop-color:#7a65f2;stop-opacity:1"/><stop offset="1" style="stop-color:#4591ed;stop-opacity:1"/></linearGradient><linearGradient id="_Linear9" x1="0" y1="0" x2="1" y2="0" gradientUnits="userSpaceOnUse" gradientTransform="matrix(2602.09,0,0,462.347,0,231.174)"><stop offset="0" style="stop-color:#7a65f2;stop-opacity:1"/><stop offset="1" style="stop-color:#4591ed;stop-opacity:1"/></linearGradient><linearGradient id="_Linear10" x1="0" y1="0" x2="1" y2="0" gradientUnits="userSpaceOnUse" gradientTransform="matrix(2602.09,0,0,462.347,0,231.174)"><stop offset="0" style="stop-color:#7a65f2;stop-opacity:1"/><stop offset="1" style="stop-color:#4591ed;stop-opacity:1"/></linearGradient><linearGradient id="_Linear11" x1="0" y1="0" x2="1" y2="0" gradientUnits="userSpaceOnUse" gradientTransform="matrix(2602.09,0,0,462.347,0,231.174)"><stop offset="0" style="stop-color:#7a65f2;stop-opacity:1"/><stop offset="1" style="stop-color:#4591ed;stop-opacity:1"/></linearGradient><linearGradient id="_Linear12" x1="0" y1="0" x2="1" y2="0" gradientUnits="userSpaceOnUse" gradientTransform="matrix(2602.09,0,0,462.347,0,231.174)"><stop offset="0" style="stop-color:#7a65f2;stop-opacity:1"/><stop offset="1" style="stop-color:#4591ed;stop-opacity:1"/></linearGradient><linearGradient id="_Linear13" x1="0" y1="0" x2="1" y2="0" gradientUnits="userSpaceOnUse" gradientTransform="matrix(2602.09,0,0,462.347,0,231.174)"><stop offset="0" style="stop-color:#7a65f2;stop-opacity:1"/><stop offset="1" style="stop-color:#4591ed;stop-opacity:1"/></linearGradient></defs></svg>