<?xml version="1.0" encoding="UTF-8" standalone="no"?><!DOCTYPE svg PUBLIC "-//W3C//DTD SVG 1.1//EN" "http://www.w3.org/Graphics/SVG/1.1/DTD/svg11.dtd"><svg width="100%" height="100%" viewBox="0 0 2078 463" version="1.1" xmlns="http://www.w3.org/2000/svg" xmlns:xlink="http://www.w3.org/1999/xlink" xml:space="preserve" style="fill-rule:evenodd;clip-rule:evenodd;stroke-linejoin:round;stroke-miterlimit:1.41421;"><g><path d="M454.177,282.632l-45.417,-198.333c-1.666,-7.917 -10,-16.667 -17.916,-19.167l-207.917,-64.167c-7.917,-2.5 -19.583,0 -25.417,5.834l-149.166,138.75c-6.25,5.833 -9.584,17.083 -7.917,25l48.333,212.083c1.667,7.917 10,16.667 17.917,19.167l194.167,60c7.916,2.5 19.583,0 25.416,-5.834l159.584,-147.916c6.666,-5.834 10,-17.084 8.333,-25.417Zm-247.083,-236.25l138.75,42.5c5.416,1.667 5.416,4.167 0,5.417l-72.917,16.666c-5.417,1.25 -13.333,-1.25 -17.083,-5.416l-51.667,-54.584c-3.75,-4.166 -2.5,-6.25 2.917,-4.583Zm51.666,96.25l35,152.917c1.25,5.416 -2.083,8.75 -7.5,7.083l-150,-46.25c-5.416,-1.667 -6.25,-6.25 -2.5,-10l115,-106.667c4.167,-3.75 8.75,-2.5 10,2.917Zm-212.083,16.667l121.667,-112.917c4.166,-3.75 10.833,-3.75 14.583,0.417l61.25,65.833c3.75,4.167 3.75,10.833 -0.417,14.583l-121.666,112.917c-4.167,3.75 -10.834,3.75 -14.584,-0.417l-61.25,-65.833c-3.75,-4.167 -3.75,-10.833 0.417,-14.583Zm29.583,180l-32.5,-141.25c-1.25,-5.417 0.834,-6.667 4.584,-2.5l51.25,55c3.75,4.166 5.833,12.083 4.166,17.5l-22.083,71.666c-1.667,5 -4.167,5 -5.417,-0.416Zm190.834,75.416c-1.667,5.417 -7.5,8.334 -12.917,6.667l-158.75,-48.75c-5.417,-1.667 -8.333,-7.5 -6.667,-12.917l26.25,-85.833c1.667,-5.417 7.5,-8.333 12.917,-6.667l158.75,48.75c5.417,1.667 8.333,7.5 6.667,12.917l-26.25,85.833Zm128.333,-108.75l-106.25,98.75c-4.167,3.75 -6.25,2.5 -4.583,-2.916l22.083,-71.667c1.667,-5.417 7.5,-10.833 12.917,-12.083l72.916,-16.667c5.834,-1.25 7.084,0.833 2.917,4.583Zm11.25,-21.25l-87.5,20c-5.417,1.25 -11.25,-2.083 -12.5,-7.916l-37.083,-161.667c-1.25,-5.417 2.083,-11.25 7.916,-12.5l87.5,-20c5.417,-1.25 11.25,2.083 12.5,7.917l37.084,161.666c1.25,5.834 -2.084,11.25 -7.917,12.5Z" style="fill:url(#_Linear1);fill-rule:nonzero;"/><g><path d="M635.844,154.715l59.583,-8.333l-36.25,204.583l-57.917,0l34.584,-196.25Zm15.833,-88.75l59.583,-8.333l-11.25,61.667l-59.166,8.333l10.833,-61.667Z" style="fill:url(#_Linear2);fill-rule:nonzero;"/><path d="M849.594,214.299c0.416,-2.5 0.833,-4.584 0.833,-6.25c0,-4.167 -2.083,-5.834 -7.917,-5.834c-10.833,0 -36.25,10.834 -52.083,18.75l-22.5,129.584l-57.917,0l34.167,-195.834l51.25,-8.75l-0.417,22.084c31.25,-15 55.834,-22.5 79.167,-22.5c26.667,0 36.667,15.416 36.667,40.833c0,7.083 -0.417,12.917 -2.084,22.917l-24.583,140.833l-57.917,0l23.334,-135.833Z" style="fill:url(#_Linear3);fill-rule:nonzero;"/><path d="M916.26,401.382c20,-20.417 22.917,-31.25 26.25,-50.833l27.084,-153.334l-28.75,0l8.333,-47.5l28.75,0l4.583,-26.25c8.334,-46.25 25.417,-63.75 77.084,-63.75c16.666,0 45,2.917 70,10l60,-10l-51.25,290.834l-57.917,0l41.25,-236.25c-15.833,-4.167 -43.75,-7.5 -60.833,-7.5c-13.334,0 -17.5,3.333 -19.167,13.75l-5.417,29.166l52.084,0l-12.5,47.5l-47.917,0l-27.917,160c-5,27.917 -15,47.917 -46.25,78.75l-37.5,-34.583Z" style="fill:url(#_Linear4);fill-rule:nonzero;"/><path d="M1248.76,285.965c-0.416,2.084 -0.833,4.584 -0.833,6.25c0,4.167 2.083,6.25 7.917,6.25c10.833,0 37.083,-11.666 52.083,-18.75l21.667,-125l59.583,-8.333l-35.833,204.583l-49.584,0l-0.416,-18.75c-31.25,15 -55.834,22.5 -79.167,22.5c-26.25,0 -36.667,-15.833 -36.667,-40.833c0,-8.333 0.834,-15 2.084,-22.917l23.75,-136.25l59.166,-8.333l-23.75,139.583Z" style="fill:url(#_Linear5);fill-rule:nonzero;"/><path d="M1482.93,300.549l-41.667,50.416l-61.25,0l79.584,-100.833l-43.334,-95l55.834,-8.333l25.833,66.666l43.333,-62.916l61.667,0l-80.833,107.5l42.5,92.916l-57.917,0l-23.75,-50.416Z" style="fill:url(#_Linear6);fill-rule:nonzero;"/><path d="M1741.68,321.382c-22.917,19.583 -53.333,33.333 -82.083,33.333c-25.417,0 -39.584,-9.166 -39.584,-33.75c0,-4.583 0.417,-9.583 1.25,-15l15.417,-86.25c9.583,-54.583 34.167,-74.166 85.417,-74.166c13.333,0 36.25,2.916 48.75,6.666l15,-84.583l23.333,-3.333l-50.833,286.25l-20.834,0l4.167,-29.167Zm25,-148.333c-16.25,-4.167 -32.083,-6.667 -48.333,-6.667c-36.667,0 -52.084,13.333 -59.584,57.5l-14.583,82.083c-0.833,5 -1.25,8.75 -1.25,12.084c0,12.916 6.25,16.25 18.75,16.25c25.417,0 57.5,-16.667 83.75,-39.584l21.25,-121.666Z" style="fill:url(#_Linear7);fill-rule:nonzero;"/><path d="M1875.43,68.049l23.333,-3.334l-19.583,113.75c22.5,-19.166 52.5,-32.5 80.833,-32.5c25.417,0 40,9.167 40,33.75c0,4.584 -0.833,9.584 -1.666,15l-15.417,86.25c-9.167,51.667 -31.25,74.167 -85.417,74.167c-18.75,0 -46.25,-3.333 -70.833,-11.667l48.75,-275.416Zm-22.917,261.25c12.917,2.916 32.084,5 48.75,5c37.5,0 52.084,-13.75 59.584,-57.5l14.583,-82.084c0.833,-5 1.25,-8.75 1.25,-12.5c0,-12.916 -6.25,-15.833 -18.75,-15.833c-25.417,0 -57.5,16.667 -83.75,39.583l-21.667,123.334Z" style="fill:url(#_Linear8);fill-rule:nonzero;"/></g><path d="M2034.59,80.549l-5,0l4.166,-23.334l-7.916,0l0.833,-4.583l20.833,0l-0.833,4.583l-7.917,0l-4.166,23.334Z" style="fill:url(#_Linear9);fill-rule:nonzero;"/><path d="M2071.26,62.632l-7.916,14.167l-5.417,0l-2.5,-14.167l-4.167,17.917l-5.416,0l6.25,-27.917l5.416,0l3.75,18.75l10.417,-18.75l5.833,0l-3.333,27.917l-5,0l2.083,-17.917Z" style="fill:url(#_Linear10);fill-rule:nonzero;"/></g><defs><linearGradient id="_Linear1" x1="0" y1="0" x2="1" y2="0" gradientUnits="userSpaceOnUse" gradientTransform="matrix(2077.51,0,0,462.764,0,231.382)"><stop offset="0" style="stop-color:#22adf6;stop-opacity:1"/><stop offset="1" style="stop-color:#9394ff;stop-opacity:1"/></linearGradient><linearGradient id="_Linear2" x1="0" y1="0" x2="1" y2="0" gradientUnits="userSpaceOnUse" gradientTransform="matrix(2077.51,0,0,462.764,0,231.382)"><stop offset="0" style="stop-color:#22adf6;stop-opacity:1"/><stop offset="1" style="stop-color:#9394ff;stop-opacity:1"/></linearGradient><linearGradient id="_Linear3" x1="0" y1="0" x2="1" y2="0" gradientUnits="userSpaceOnUse" gradientTransform="matrix(2077.51,0,0,462.764,0,231.382)"><stop offset="0" style="stop-color:#22adf6;stop-opacity:1"/><stop offset="1" style="stop-color:#9394ff;stop-opacity:1"/></linearGradient><linearGradient id="_Linear4" x1="0" y1="0" x2="1" y2="0" gradientUnits="userSpaceOnUse" gradientTransform="matrix(2077.51,0,0,462.764,0,231.382)"><stop offset="0" style="stop-color:#22adf6;stop-opacity:1"/><stop offset="1" style="stop-color:#9394ff;stop-opacity:1"/></linearGradient><linearGradient id="_Linear5" x1="0" y1="0" x2="1" y2="0" gradientUnits="userSpaceOnUse" gradientTransform="matrix(2077.51,0,0,462.764,0,231.382)"><stop offset="0" style="stop-color:#22adf6;stop-opacity:1"/><stop offset="1" style="stop-color:#9394ff;stop-opacity:1"/></linearGradient><linearGradient id="_Linear6" x1="0" y1="0" x2="1" y2="0" gradientUnits="userSpaceOnUse" gradientTransform="matrix(2077.51,0,0,462.764,0,231.382)"><stop offset="0" style="stop-color:#22adf6;stop-opacity:1"/><stop offset="1" style="stop-color:#9394ff;stop-opacity:1"/></linearGradient><linearGradient id="_Linear7" x1="0" y1="0" x2="1" y2="0" gradientUnits="userSpaceOnUse" gradientTransform="matrix(2077.51,0,0,462.764,0,231.382)"><stop offset="0" style="stop-color:#22adf6;stop-opacity:1"/><stop offset="1" style="stop-color:#9394ff;stop-opacity:1"/></linearGradient><linearGradient id="_Linear8" x1="0" y1="0" x2="1" y2="0" gradientUnits="userSpaceOnUse" gradientTransform="matrix(2077.51,0,0,462.764,0,231.382)"><stop offset="0" style="stop-color:#22adf6;stop-opacity:1"/><stop offset="1" style="stop-color:#9394ff;stop-opacity:1"/></linearGradient><linearGradient id="_Linear9" x1="0" y1="0" x2="1" y2="0" gradientUnits="userSpaceOnUse" gradientTransform="matrix(2077.51,0,0,462.764,0,231.382)"><stop offset="0" style="stop-color:#22adf6;stop-opacity:1"/><stop offset="1" style="stop-color:#9394ff;stop-opacity:1"/></linearGradient><linearGradient id="_Linear10" x1="0" y1="0" x2="1" y2="0" gradientUnits="userSpaceOnUse" gradientTransform="matrix(2077.51,0,0,462.764,0,231.382)"><stop offset="0" style="stop-color:#22adf6;stop-opacity:1"/><stop offset="1" style="stop-color:#9394ff;stop-opacity:1"/></linearGradient></defs></svg>