<?xml version="1.0" encoding="UTF-8" standalone="no"?><!DOCTYPE svg PUBLIC "-//W3C//DTD SVG 1.1//EN" "http://www.w3.org/Graphics/SVG/1.1/DTD/svg11.dtd"><svg width="100%" height="100%" viewBox="0 0 2323 463" version="1.1" xmlns="http://www.w3.org/2000/svg" xmlns:xlink="http://www.w3.org/1999/xlink" xml:space="preserve" style="fill-rule:evenodd;clip-rule:evenodd;stroke-linejoin:round;stroke-miterlimit:1.41421;"><g><path d="M454.177,282.632l-45.417,-198.333c-1.666,-7.917 -10,-16.667 -17.916,-19.167l-207.917,-64.167c-7.917,-2.5 -19.583,0 -25.417,5.834l-149.166,138.333c-6.25,5.833 -9.584,17.083 -7.917,25l48.333,212.083c1.667,7.917 10,16.667 17.917,19.167l194.167,60c7.916,2.5 19.583,0 25.416,-5.833l159.584,-147.917c6.666,-5.417 10.416,-16.667 8.333,-25Zm-247.083,-236.25l138.75,42.5c5.416,1.667 5.416,4.167 0,5.417l-72.917,16.666c-5.417,1.25 -13.333,-1.25 -17.083,-5.416l-51.25,-55c-4.167,-3.75 -2.917,-5.834 2.5,-4.167Zm51.666,96.25l35,152.917c1.25,5.416 -2.083,8.75 -7.5,7.083l-149.583,-46.25c-5.417,-1.667 -6.25,-6.25 -2.5,-10l115,-106.667c4.167,-3.75 8.333,-2.5 9.583,2.917Zm-211.666,16.667l121.666,-112.917c4.167,-3.75 10.834,-3.75 14.584,0.417l61.25,65.833c3.75,4.167 3.75,10.833 -0.417,14.583l-121.667,112.917c-4.166,3.75 -10.833,3.75 -14.583,-0.417l-61.25,-65.833c-4.167,-4.167 -3.75,-10.833 0.417,-14.583Zm29.583,180l-32.5,-141.25c-1.25,-5.417 0.833,-6.667 4.583,-2.5l51.25,55c3.75,4.166 5.834,12.083 4.167,17.5l-22.083,71.666c-1.667,5 -4.167,5 -5.417,-0.416Zm190.833,75.416c-1.666,5.417 -7.5,8.334 -12.916,6.667l-158.75,-48.75c-5.417,-1.667 -8.334,-7.5 -6.667,-12.917l26.25,-85.833c1.667,-5.417 7.5,-8.333 12.917,-6.667l158.75,48.75c5.416,1.667 8.333,7.5 6.666,12.917l-26.25,85.833Zm127.917,-108.75l-106.25,98.75c-4.167,3.75 -6.25,2.5 -4.583,-2.916l22.083,-71.667c1.667,-5.417 7.5,-10.833 12.917,-12.083l72.916,-16.667c5.834,-1.25 7.084,0.833 2.917,4.583Zm11.667,-21.25l-87.5,20c-5.417,1.25 -11.25,-2.083 -12.5,-7.916l-37.084,-161.667c-1.25,-5.417 2.084,-11.25 7.917,-12.5l87.5,-20c5.417,-1.25 11.25,2.083 12.5,7.917l37.083,161.666c1.25,5.834 -2.5,11.25 -7.916,12.5Z" style="fill:url(#_Linear1);fill-rule:nonzero;"/><g><path d="M601.677,350.549l49.583,-282.5l59.584,-8.334l-51.25,290.834l-57.917,0Zm151.667,-205l60,9.166l-70,95l37.083,100.834l-61.25,0l-35.833,-100.834l70,-104.166Z" style="fill:url(#_Linear2);fill-rule:nonzero;"/><path d="M925.427,350.549l-1.667,-17.5c-14.166,10.833 -35,21.25 -63.75,21.25c-43.75,0 -52.5,-26.25 -44.583,-71.25l9.583,-54.167c8.334,-47.917 27.084,-83.333 106.25,-83.333c20.834,0 48.75,3.75 76.667,12.5l-33.333,192.083l-49.167,0l0,0.417Zm-52.917,-60.834c-1.666,10.834 0.834,15 11.25,15c15,0 30.834,-8.75 44.167,-19.583l15.417,-87.083c-7.917,-1.667 -16.667,-2.084 -22.5,-2.084c-30,0 -33.75,15 -37.5,34.167l-10.834,59.583Z" style="fill:url(#_Linear3);fill-rule:nonzero;"/><path d="M1108.34,150.132l1.666,17.5c14.584,-12.083 35,-21.25 63.75,-21.25c43.75,0 54.584,26.25 46.667,71.25l-9.583,54.167c-8.334,47.916 -20.417,83.75 -105,83.75c-6.25,0 -18.75,-0.834 -24.167,-2.084l-14.167,79.167l-59.166,8.333l51.25,-290l48.75,0l0,-0.833Zm55.416,60c2.084,-10.833 -0.833,-15.833 -11.25,-15.833c-20.416,0 -35.416,10.833 -46.666,20.416l-15.834,89.584c6.667,1.25 14.584,1.666 22.5,1.666c30,0 36.25,-16.25 40,-35.416l11.25,-60.417Z" style="fill:url(#_Linear4);fill-rule:nonzero;"/><path d="M1355.43,350.549l-1.667,-17.5c-14.166,10.833 -35,21.25 -63.75,21.25c-43.75,0 -52.5,-26.25 -44.583,-71.25l9.583,-54.167c8.334,-47.917 27.084,-83.333 106.25,-83.333c20.834,0 48.75,3.75 76.667,12.5l-33.333,192.083l-49.167,0l0,0.417Zm-52.917,-60.834c-1.666,10.834 0.834,15 11.25,15c15,0 30.834,-8.75 44.167,-19.583l15.417,-87.083c-7.917,-1.667 -16.667,-2.084 -22.5,-2.084c-30,0 -33.75,15 -37.5,34.167l-10.834,59.583Z" style="fill:url(#_Linear5);fill-rule:nonzero;"/><path d="M1457.09,303.882c0,-10.417 0.833,-18.75 3.333,-30.417l11.25,-55.833c11.25,-56.667 38.75,-71.25 95.417,-71.25c17.916,0 35,3.75 46.666,8.333l-14.166,47.084c-10,-3.334 -21.667,-5.834 -33.334,-5.834c-26.25,0 -35,8.334 -39.166,31.25l-10.834,60.834c-0.416,2.5 -0.833,5.833 -0.833,7.916c0,6.667 3.333,10 10.833,10c15,0 42.5,-8.333 56.25,-12.5l5.417,46.667c-17.083,8.333 -45,15.417 -66.25,15.417c-46.25,-0.834 -64.583,-16.25 -64.583,-51.667Z" style="fill:url(#_Linear6);fill-rule:nonzero;"/><path d="M1657.09,154.715l59.583,-8.333l-36.25,204.583l-57.917,0l34.584,-196.25Zm15.833,-88.75l59.583,-8.333l-11.25,61.667l-59.166,8.333l10.833,-61.667Z" style="fill:url(#_Linear7);fill-rule:nonzero;"/><path d="M1827.09,196.382l-17.917,100c-0.417,2.083 -0.833,4.167 -0.833,5.417c0,2.916 1.666,4.166 5.833,4.166c10,0 20.833,-4.166 31.25,-8.333l11.667,40.417c-16.667,9.166 -40.417,16.666 -63.75,16.666c-29.167,0 -45,-14.166 -45,-37.916c0,-2.917 0.416,-5.834 0.833,-8.75l19.583,-111.667l-29.583,0l8.333,-46.667l29.584,0l8.333,-48.333l59.583,-8.333l-10,56.25l47.917,0l-11.667,46.666l-44.166,0l0,0.417Z" style="fill:url(#_Linear8);fill-rule:nonzero;"/><path d="M1885.43,287.632c0,-4.583 0.417,-9.583 1.25,-14.167l8.333,-46.666c9.167,-51.667 34.167,-81.25 104.167,-81.25c54.167,0 78.333,30.833 78.333,66.666c0,4.584 -0.416,9.584 -1.25,14.584l-8.333,46.666c-8.75,48.334 -31.667,81.25 -104.583,81.25c-50.834,0 -77.917,-30.416 -77.917,-67.083Zm134.167,-70.417c0,-15 -9.167,-22.5 -27.917,-22.5c-21.667,0 -34.583,11.25 -37.917,30.834l-8.75,50c-0.416,2.916 -0.833,5.833 -0.833,8.333c0,14.583 9.167,22.5 27.917,22.5c22.083,0 34.583,-11.25 37.916,-30.833l8.75,-50c0.417,-2.917 0.834,-5.834 0.834,-8.334Z" style="fill:url(#_Linear9);fill-rule:nonzero;"/><path d="M2232.09,198.465c-25.417,14.167 -35,19.167 -57.917,33.75l-20.833,118.334l-57.917,0l34.167,-195.834l51.25,-8.75l-1.25,27.084c19.166,-11.667 35,-19.584 52.5,-27.084l0,52.5Z" style="fill:url(#_Linear10);fill-rule:nonzero;"/></g><path d="M2280.01,80.549l-5,0l4.167,-23.334l-7.917,0l0.834,-4.583l20.833,0l-0.833,4.583l-7.917,0l-4.167,23.334Z" style="fill:url(#_Linear11);fill-rule:nonzero;"/><path d="M2316.68,62.632l-7.917,14.167l-5.416,0l-2.5,-14.167l-4.167,17.917l-5.417,0l6.25,-27.917l5.417,0l3.75,18.75l10.417,-18.75l5.833,0l-3.333,27.917l-5,0l2.083,-17.917Z" style="fill:url(#_Linear12);fill-rule:nonzero;"/></g><defs><linearGradient id="_Linear1" x1="0" y1="0" x2="1" y2="0" gradientUnits="userSpaceOnUse" gradientTransform="matrix(2322.93,0,0,462.347,2.27374e-13,231.174)"><stop offset="0" style="stop-color:#00c9ff;stop-opacity:1"/><stop offset="1" style="stop-color:#4ed8a0;stop-opacity:1"/></linearGradient><linearGradient id="_Linear2" x1="0" y1="0" x2="1" y2="0" gradientUnits="userSpaceOnUse" gradientTransform="matrix(2322.93,0,0,462.347,2.27374e-13,231.174)"><stop offset="0" style="stop-color:#00c9ff;stop-opacity:1"/><stop offset="1" style="stop-color:#4ed8a0;stop-opacity:1"/></linearGradient><linearGradient id="_Linear3" x1="0" y1="0" x2="1" y2="0" gradientUnits="userSpaceOnUse" gradientTransform="matrix(2322.93,0,0,462.347,2.27374e-13,231.174)"><stop offset="0" style="stop-color:#00c9ff;stop-opacity:1"/><stop offset="1" style="stop-color:#4ed8a0;stop-opacity:1"/></linearGradient><linearGradient id="_Linear4" x1="0" y1="0" x2="1" y2="0" gradientUnits="userSpaceOnUse" gradientTransform="matrix(2322.93,0,0,462.347,2.27374e-13,231.174)"><stop offset="0" style="stop-color:#00c9ff;stop-opacity:1"/><stop offset="1" style="stop-color:#4ed8a0;stop-opacity:1"/></linearGradient><linearGradient id="_Linear5" x1="0" y1="0" x2="1" y2="0" gradientUnits="userSpaceOnUse" gradientTransform="matrix(2322.93,0,0,462.347,2.27374e-13,231.174)"><stop offset="0" style="stop-color:#00c9ff;stop-opacity:1"/><stop offset="1" style="stop-color:#4ed8a0;stop-opacity:1"/></linearGradient><linearGradient id="_Linear6" x1="0" y1="0" x2="1" y2="0" gradientUnits="userSpaceOnUse" gradientTransform="matrix(2322.93,0,0,462.347,2.27374e-13,231.174)"><stop offset="0" style="stop-color:#00c9ff;stop-opacity:1"/><stop offset="1" style="stop-color:#4ed8a0;stop-opacity:1"/></linearGradient><linearGradient id="_Linear7" x1="0" y1="0" x2="1" y2="0" gradientUnits="userSpaceOnUse" gradientTransform="matrix(2322.93,0,0,462.347,2.27374e-13,231.174)"><stop offset="0" style="stop-color:#00c9ff;stop-opacity:1"/><stop offset="1" style="stop-color:#4ed8a0;stop-opacity:1"/></linearGradient><linearGradient id="_Linear8" x1="0" y1="0" x2="1" y2="0" gradientUnits="userSpaceOnUse" gradientTransform="matrix(2322.93,0,0,462.347,2.27374e-13,231.174)"><stop offset="0" style="stop-color:#00c9ff;stop-opacity:1"/><stop offset="1" style="stop-color:#4ed8a0;stop-opacity:1"/></linearGradient><linearGradient id="_Linear9" x1="0" y1="0" x2="1" y2="0" gradientUnits="userSpaceOnUse" gradientTransform="matrix(2322.93,0,0,462.347,2.27374e-13,231.174)"><stop offset="0" style="stop-color:#00c9ff;stop-opacity:1"/><stop offset="1" style="stop-color:#4ed8a0;stop-opacity:1"/></linearGradient><linearGradient id="_Linear10" x1="0" y1="0" x2="1" y2="0" gradientUnits="userSpaceOnUse" gradientTransform="matrix(2322.93,0,0,462.347,2.27374e-13,231.174)"><stop offset="0" style="stop-color:#00c9ff;stop-opacity:1"/><stop offset="1" style="stop-color:#4ed8a0;stop-opacity:1"/></linearGradient><linearGradient id="_Linear11" x1="0" y1="0" x2="1" y2="0" gradientUnits="userSpaceOnUse" gradientTransform="matrix(2322.93,0,0,462.347,2.27374e-13,231.174)"><stop offset="0" style="stop-color:#00c9ff;stop-opacity:1"/><stop offset="1" style="stop-color:#4ed8a0;stop-opacity:1"/></linearGradient><linearGradient id="_Linear12" x1="0" y1="0" x2="1" y2="0" gradientUnits="userSpaceOnUse" gradientTransform="matrix(2322.93,0,0,462.347,2.27374e-13,231.174)"><stop offset="0" style="stop-color:#00c9ff;stop-opacity:1"/><stop offset="1" style="stop-color:#4ed8a0;stop-opacity:1"/></linearGradient></defs></svg>