<?xml version="1.0" encoding="UTF-8" standalone="no"?><!DOCTYPE svg PUBLIC "-//W3C//DTD SVG 1.1//EN" "http://www.w3.org/Graphics/SVG/1.1/DTD/svg11.dtd"><svg width="100%" height="100%" viewBox="0 0 2080 463" version="1.1" xmlns="http://www.w3.org/2000/svg" xmlns:xlink="http://www.w3.org/1999/xlink" xml:space="preserve" style="fill-rule:evenodd;clip-rule:evenodd;stroke-linejoin:round;stroke-miterlimit:1.41421;"><g><path d="M454.177,282.632l-45.417,-198.333c-1.666,-7.917 -10,-16.667 -17.916,-19.167l-207.917,-64.167c-7.917,-2.5 -19.583,0 -25.417,5.834l-149.166,138.333c-6.25,5.833 -9.584,17.083 -7.917,25l48.333,212.083c1.667,7.917 10,16.667 17.917,19.167l194.167,60c7.916,2.5 19.583,0 25.416,-5.833l159.584,-147.917c7.083,-5.417 10.416,-16.667 8.333,-25Zm-246.667,-236.25l138.75,42.5c5.417,1.667 5.417,4.167 0,5.417l-72.916,16.666c-5.417,1.25 -13.334,-1.25 -17.084,-5.416l-51.25,-55c-4.583,-3.75 -2.916,-5.834 2.5,-4.167Zm51.25,96.25l35,152.917c1.25,5.416 -2.083,8.75 -7.5,7.083l-149.583,-46.25c-5.417,-1.667 -6.25,-6.25 -2.5,-10l115,-106.667c4.167,-3.75 8.333,-2.5 9.583,2.917Zm-211.666,16.667l121.666,-112.917c4.167,-3.75 10.834,-3.75 14.584,0.417l61.25,65.833c3.75,4.167 3.75,10.833 -0.417,14.583l-121.667,112.917c-4.166,3.75 -10.833,3.75 -14.583,-0.417l-61.25,-65.833c-4.167,-4.167 -3.75,-10.833 0.417,-14.583Zm29.583,180l-32.5,-141.25c-1.25,-5.417 0.833,-6.667 4.583,-2.5l51.25,55c3.75,4.166 5.834,12.083 4.167,17.5l-22.083,71.666c-1.667,5 -4.167,5 -5.417,-0.416Zm190.833,75.416c-1.666,5.417 -7.5,8.334 -12.916,6.667l-158.75,-48.75c-5.417,-1.667 -8.334,-7.5 -6.667,-12.917l26.25,-85.833c1.667,-5.417 7.5,-8.333 12.917,-6.667l158.75,48.75c5.416,1.667 8.333,7.5 6.666,12.917l-26.25,85.833Zm127.917,-108.75l-106.25,98.75c-4.167,3.75 -6.25,2.5 -4.583,-2.916l22.083,-71.667c1.667,-5.417 7.5,-10.833 12.917,-12.083l72.916,-16.667c6.25,-1.25 7.084,0.833 2.917,4.583Zm11.667,-21.25l-87.5,20c-5.417,1.25 -11.25,-2.083 -12.5,-7.916l-37.084,-161.667c-1.25,-5.417 2.084,-11.25 7.917,-12.5l87.5,-20c5.417,-1.25 11.25,2.083 12.5,7.917l37.083,161.666c1.25,5.834 -2.5,11.25 -7.916,12.5Z" style="fill:url(#_Linear1);fill-rule:nonzero;"/><g><path d="M697.094,196.382l-17.917,100c-0.417,2.083 -0.833,4.167 -0.833,5.417c0,2.916 1.666,4.166 5.833,4.166c10,0 20.833,-4.166 31.25,-8.333l11.667,40.417c-16.667,9.166 -40.417,16.666 -63.75,16.666c-29.167,0 -45,-14.166 -45,-37.916c0,-2.917 0.416,-5.834 0.833,-8.75l19.583,-111.667l-29.583,0l8.333,-46.667l29.584,0l8.333,-48.333l59.583,-8.333l-10,56.25l47.917,0l-11.667,46.666l-44.166,0l0,0.417Z" style="fill:url(#_Linear2);fill-rule:nonzero;"/><path d="M767.927,221.799c8.333,-46.25 28.75,-75.834 92.5,-75.834c37.917,0 66.667,16.667 66.667,50.417c0,39.167 -20,57.083 -69.584,72.083c-24.166,7.5 -24.583,7.5 -42.083,12.084l-2.5,14.166c-1.25,7.5 -0.417,14.167 10.417,14.167c20.833,0 51.666,-10.417 78.75,-22.083l11.25,41.25c-24.167,15.416 -62.5,27.5 -97.917,27.5c-41.667,0 -59.167,-18.334 -59.167,-52.5c0,-7.5 0.834,-15.834 2.5,-24.167l9.167,-57.083Zm105.417,-19.584c0,-7.083 -6.25,-11.666 -17.084,-11.666c-20.833,0 -27.083,12.083 -30,28.333l-2.5,14.167c10,-2.5 14.584,-3.334 26.25,-7.084c15.834,-4.166 23.334,-11.666 23.334,-23.75Z" style="fill:url(#_Linear3);fill-rule:nonzero;"/><path d="M990.427,68.049l59.583,-8.334l-51.25,290.834l-57.916,0l49.583,-282.5Z" style="fill:url(#_Linear4);fill-rule:nonzero;"/><path d="M1064.18,221.799c8.333,-46.25 28.75,-75.834 92.5,-75.834c37.917,0 66.667,16.667 66.667,50.417c0,39.167 -20,57.083 -69.584,72.083c-24.166,7.5 -24.583,7.5 -42.083,12.084l-2.5,14.166c-1.25,7.5 -0.417,14.167 10.417,14.167c20.833,0 51.666,-10.417 78.75,-22.083l11.25,41.25c-24.167,15.416 -62.5,27.5 -97.917,27.5c-41.667,0 -59.167,-18.334 -59.167,-52.5c0,-7.5 0.834,-15.834 2.5,-24.167l9.167,-57.083Zm105.417,-19.584c0,-7.083 -6.25,-11.666 -17.084,-11.666c-20.833,0 -27.083,12.083 -30,28.333l-2.5,14.167c10,-2.5 14.584,-3.334 26.25,-7.084c15.834,-4.166 23.334,-11.666 23.334,-23.75Z" style="fill:url(#_Linear5);fill-rule:nonzero;"/><path d="M1349.59,329.299c-17.084,10 -36.667,17.5 -58.334,17.5c-43.75,0 -54.583,-26.667 -46.666,-71.667l8.333,-45.833c9.167,-50.834 21.667,-83.334 107.5,-83.334c20.833,0 52.5,3.75 77.917,12.084l-39.584,222.5c-7.916,45 -27.083,55.833 -80.833,55.833c-23.75,0 -64.583,-7.5 -89.583,-15.833l10.416,-40.834c30.834,7.5 55.834,11.667 80,11.667c17.5,0 21.25,-6.667 23.75,-20l7.084,-42.083Zm-48.334,-47.084c-2.083,10.834 0.834,15.834 11.25,15.834c12.917,0 33.334,-8.334 45.417,-15.834l15.417,-86.666c-7.084,-0.834 -14.584,-1.25 -22.5,-1.25c-30,0 -35.834,15 -39.584,34.166l-10,53.75Z" style="fill:url(#_Linear6);fill-rule:nonzero;"/><path d="M1590.84,198.465c-25.417,14.167 -35,19.167 -57.917,33.75l-20.833,118.334l-57.917,0l34.167,-195.834l51.25,-8.75l-1.25,27.084c19.166,-11.667 35,-19.584 52.5,-27.084l0,52.5Z" style="fill:url(#_Linear7);fill-rule:nonzero;"/><path d="M1705.84,350.549l-1.667,-17.5c-14.167,10.833 -35,21.25 -63.75,21.25c-43.75,0 -52.5,-26.25 -44.583,-71.25l9.583,-54.167c8.333,-47.917 27.083,-83.333 106.25,-83.333c20.833,0 48.75,3.75 76.667,12.5l-33.334,192.083l-49.166,0l0,0.417Zm-52.5,-60.834c-1.667,10.834 0.833,15 11.25,15c15,0 30.833,-8.75 44.166,-19.583l15.417,-87.083c-7.917,-1.667 -16.667,-2.084 -22.5,-2.084c-30,0 -33.75,15 -37.5,34.167l-10.833,59.583Z" style="fill:url(#_Linear8);fill-rule:nonzero;"/><path d="M1787.93,401.382c20,-20.417 22.917,-31.25 26.25,-50.833l27.083,-153.334l-28.75,0l8.334,-47.5l28.75,0l5,-26.25c8.333,-44.583 23.75,-63.75 72.5,-63.75c16.666,0 35.833,2.917 51.666,8.75l-12.083,45.834c-9.167,-3.334 -25,-6.25 -34.167,-6.25c-13.333,0 -17.5,3.333 -19.166,13.75l-5.417,28.333l52.083,0l-12.5,47.5l-47.916,0l-27.917,160c-5,27.917 -15,47.917 -46.25,78.75l-37.5,-35Z" style="fill:url(#_Linear9);fill-rule:nonzero;"/></g><path d="M2036.68,80.549l-5,0l4.167,-23.334l-7.917,0l0.833,-4.583l20.834,0l-0.834,4.583l-7.916,0l-4.167,23.334Z" style="fill:url(#_Linear10);fill-rule:nonzero;"/><path d="M2073.34,62.632l-7.917,14.167l-5.417,0l-2.5,-14.167l-4.166,17.917l-5.417,0l6.25,-27.917l5.417,0l3.75,18.75l10.416,-18.75l5.834,0l-3.334,27.917l-5,0l2.084,-17.917Z" style="fill:url(#_Linear11);fill-rule:nonzero;"/></g><defs><linearGradient id="_Linear1" x1="0" y1="0" x2="1" y2="0" gradientUnits="userSpaceOnUse" gradientTransform="matrix(2079.59,0,0,462.347,0,231.174)"><stop offset="0" style="stop-color:#f95f53;stop-opacity:1"/><stop offset="1" style="stop-color:#ff8564;stop-opacity:1"/></linearGradient><linearGradient id="_Linear2" x1="0" y1="0" x2="1" y2="0" gradientUnits="userSpaceOnUse" gradientTransform="matrix(2079.59,0,0,462.347,0,231.174)"><stop offset="0" style="stop-color:#f95f53;stop-opacity:1"/><stop offset="1" style="stop-color:#ff8564;stop-opacity:1"/></linearGradient><linearGradient id="_Linear3" x1="0" y1="0" x2="1" y2="0" gradientUnits="userSpaceOnUse" gradientTransform="matrix(2079.59,0,0,462.347,0,231.174)"><stop offset="0" style="stop-color:#f95f53;stop-opacity:1"/><stop offset="1" style="stop-color:#ff8564;stop-opacity:1"/></linearGradient><linearGradient id="_Linear4" x1="0" y1="0" x2="1" y2="0" gradientUnits="userSpaceOnUse" gradientTransform="matrix(2079.59,0,0,462.347,0,231.174)"><stop offset="0" style="stop-color:#f95f53;stop-opacity:1"/><stop offset="1" style="stop-color:#ff8564;stop-opacity:1"/></linearGradient><linearGradient id="_Linear5" x1="0" y1="0" x2="1" y2="0" gradientUnits="userSpaceOnUse" gradientTransform="matrix(2079.59,0,0,462.347,0,231.174)"><stop offset="0" style="stop-color:#f95f53;stop-opacity:1"/><stop offset="1" style="stop-color:#ff8564;stop-opacity:1"/></linearGradient><linearGradient id="_Linear6" x1="0" y1="0" x2="1" y2="0" gradientUnits="userSpaceOnUse" gradientTransform="matrix(2079.59,0,0,462.347,0,231.174)"><stop offset="0" style="stop-color:#f95f53;stop-opacity:1"/><stop offset="1" style="stop-color:#ff8564;stop-opacity:1"/></linearGradient><linearGradient id="_Linear7" x1="0" y1="0" x2="1" y2="0" gradientUnits="userSpaceOnUse" gradientTransform="matrix(2079.59,0,0,462.347,0,231.174)"><stop offset="0" style="stop-color:#f95f53;stop-opacity:1"/><stop offset="1" style="stop-color:#ff8564;stop-opacity:1"/></linearGradient><linearGradient id="_Linear8" x1="0" y1="0" x2="1" y2="0" gradientUnits="userSpaceOnUse" gradientTransform="matrix(2079.59,0,0,462.347,0,231.174)"><stop offset="0" style="stop-color:#f95f53;stop-opacity:1"/><stop offset="1" style="stop-color:#ff8564;stop-opacity:1"/></linearGradient><linearGradient id="_Linear9" x1="0" y1="0" x2="1" y2="0" gradientUnits="userSpaceOnUse" gradientTransform="matrix(2079.59,0,0,462.347,0,231.174)"><stop offset="0" style="stop-color:#f95f53;stop-opacity:1"/><stop offset="1" style="stop-color:#ff8564;stop-opacity:1"/></linearGradient><linearGradient id="_Linear10" x1="0" y1="0" x2="1" y2="0" gradientUnits="userSpaceOnUse" gradientTransform="matrix(2079.59,0,0,462.347,0,231.174)"><stop offset="0" style="stop-color:#f95f53;stop-opacity:1"/><stop offset="1" style="stop-color:#ff8564;stop-opacity:1"/></linearGradient><linearGradient id="_Linear11" x1="0" y1="0" x2="1" y2="0" gradientUnits="userSpaceOnUse" gradientTransform="matrix(2079.59,0,0,462.347,0,231.174)"><stop offset="0" style="stop-color:#f95f53;stop-opacity:1"/><stop offset="1" style="stop-color:#ff8564;stop-opacity:1"/></linearGradient></defs></svg>